<!DOCTYPE svg PUBLIC "-//W3C//DTD SVG 1.1//EN" "http://www.w3.org/Graphics/SVG/1.1/DTD/svg11.dtd">
<!-- Uploaded to: SVG Repo, www.svgrepo.com, Transformed by: SVG Repo Mixer Tools -->
<svg height="70px" width="70px" version="1.1" id="Layer_1" xmlns="http://www.w3.org/2000/svg" xmlns:xlink="http://www.w3.org/1999/xlink" viewBox="0 0 511.981 511.981" xml:space="preserve" fill="#000000">
<g id="SVGRepo_bgCarrier" stroke-width="0"/>
<g id="SVGRepo_tracerCarrier" stroke-linecap="round" stroke-linejoin="round"/>
<g id="SVGRepo_iconCarrier"> <path style="fill:#CCD1D9;" d="M479.981,245.334H31.999c-5.891,0-10.664,4.766-10.664,10.656v213.335 c0,5.891,4.773,10.656,10.664,10.656h447.982c5.891,0,10.656-4.766,10.656-10.656V255.99 C490.637,250.099,485.872,245.334,479.981,245.334z"/> <polygon style="fill:#AAB2BC;" points="21.335,447.983 21.335,469.326 53.334,469.326 53.334,479.982 74.661,479.982 74.661,469.326 117.331,469.326 117.331,479.982 138.658,479.982 138.658,469.326 181.328,469.326 181.328,479.982 202.656,479.982 202.656,469.326 245.326,469.326 245.326,479.982 266.654,479.982 266.654,469.326 309.332,469.326 309.332,479.982 330.643,479.982 330.643,469.326 373.329,469.326 373.329,479.982 394.641,479.982 394.641,469.326 437.326,469.326 437.326,479.982 458.638,479.982 458.638,469.326 490.637,469.326 490.637,447.983 "/> <path style="fill:#434A54;" d="M159.994,32c-5.867,0-10.664,4.796-10.664,10.671v53.326c0,5.875,4.797,10.672,10.664,10.672h21.334 c5.867,0,10.664-4.797,10.664-10.672V85.341c0-5.875,4.797-10.672,10.664-10.672h106.676c5.858,0,10.655,4.797,10.655,10.672v10.655 c0,5.875,4.797,10.672,10.656,10.672h21.343c5.875,0,10.655-4.797,10.655-10.672V42.671c0-5.875-4.78-10.671-10.655-10.671 C351.986,32,159.994,32,159.994,32z"/> <path style="fill:#E6E9ED;" d="M501.324,266.661H10.663C4.773,266.661,0,261.881,0,255.99V106.669 c0-5.891,4.773-10.672,10.664-10.672h490.661c5.875,0,10.656,4.781,10.656,10.672V255.99 C511.98,261.881,507.199,266.661,501.324,266.661z"/> <path style="fill:#FFCE54;" d="M106.66,309.333c-5.883,0-10.664-4.797-10.664-10.672v-85.324c0-5.891,4.781-10.672,10.664-10.672 h42.67c5.883,0,10.664,4.781,10.664,10.672v85.324c0,5.875-4.781,10.672-10.664,10.672H106.66z"/> <path style="fill:#F6BB42;" d="M149.33,191.992h-42.67c-11.757,0-21.328,9.578-21.328,21.344v85.324 c0,11.765,9.57,21.343,21.328,21.343h42.67c11.758,0,21.327-9.578,21.327-21.343v-85.324 C170.657,201.57,161.088,191.992,149.33,191.992z M149.33,298.661c-0.008,0-0.016,0-0.016,0h-42.639c-0.008,0-0.008,0-0.008,0 l-0.008-85.309l0.016-0.016h42.639c0,0,0.008,0,0.016,0.016L149.33,298.661L149.33,298.661z"/> <path style="fill:#FFCE54;" d="M362.641,309.333c-5.874,0-10.655-4.797-10.655-10.672v-85.324c0-5.891,4.781-10.672,10.655-10.672 h42.688c5.875,0,10.655,4.781,10.655,10.672v85.324c0,5.875-4.78,10.672-10.655,10.672H362.641z"/> <g> <path style="fill:#F6BB42;" d="M405.329,191.992h-42.688c-11.749,0-21.311,9.578-21.311,21.344v85.324 c0,11.765,9.562,21.343,21.311,21.343h42.688c11.749,0,21.312-9.578,21.312-21.343v-85.324 C426.64,201.57,417.078,191.992,405.329,191.992z M405.329,298.661c-0.016,0-0.031,0-0.031,0h-42.625c-0.016,0-0.016,0-0.016,0 l-0.016-85.309l0.031-0.016h42.625c0,0,0.016,0,0.031,0.016L405.329,298.661L405.329,298.661z"/> <path style="fill:#F6BB42;" d="M127.995,288.006c-5.891,0-10.664-4.781-10.664-10.672v-42.671c0-5.89,4.773-10.67,10.664-10.67 c5.89,0,10.664,4.78,10.664,10.67v42.671C138.658,283.224,133.885,288.006,127.995,288.006z"/> <path style="fill:#F6BB42;" d="M383.985,288.006c-5.891,0-10.656-4.781-10.656-10.672v-42.671c0-5.89,4.766-10.67,10.656-10.67 s10.656,4.78,10.656,10.67v42.671C394.641,283.224,389.876,288.006,383.985,288.006z"/> </g> </g>
</svg>